<?xml version="1.0" standalone="yes"?>
<svg xmlns="http://www.w3.org/2000/svg" viewBox="0 0 152 34">
<path style="fill:#030507; stroke:none;" d="M0 0L0 1741L3703 1741L3703 0L0 0z"/>
<path style="fill:#e0dffe; stroke:none;" d="M1392.33 121.667L1392.67 122.333L1392.33 121.667z"/>
<path style="fill:#ad65ff; stroke:none;" d="M1393 121L1393 122L1400 122L1393 121z"/>
<path style="fill:#37c2d6; stroke:none;" d="M1393 122L1393 123L1400 123L1393 122z"/>
<path style="fill:#e0dffe; stroke:none;" d="M1400 122L1401 123L1400 122z"/>
<path style="fill:#3d5ab4; stroke:none;" d="M1347 127C1343.67 132.542 1336.62 128.772 1331.29 130.549C1313.65 136.416 1292.79 140 1274 140L1274 143L1256 143C1252.69 148.513 1245.51 144.814 1240.17 146.698C1222.96 152.775 1201.46 156 1183 156L1166.29 159.894L1132.09 166.144L1092 172L1092 175L1019 185L1019 188L1001 188L1001 191L928 201L928 204L837 217C834.14 221.759 828.837 219.775 824.015 220.083C820.475 220.308 818.247 222.695 814.961 223.571C810.849 224.666 806.479 223.316 802.424 224.799C791.216 228.899 778.697 227.656 767.17 230.299C737.535 237.092 707.279 241.711 677.089 246.144C662.318 248.312 647.695 252.653 633 255.701C617.527 258.911 601.485 259.087 586 262.299C552.661 269.214 519.234 275.071 486 281.657C450.025 288.786 413.94 293.246 378 300.701C362.267 303.965 345.751 303.81 330.09 307.299C300.156 313.966 269.815 316.971 240 323.299C227.22 326.012 213.901 335.065 201 336C197.799 341.536 189.07 344.656 183.92 348.546C173.87 356.135 164.613 365.673 157.009 375.714C136.232 403.151 127.215 440.905 132.144 474.961C133.476 484.169 137.889 493.552 138.892 503.004C140.174 515.084 143.963 527.105 144.942 539.015C145.447 545.161 145.166 557.718 150.514 562.062C155.024 565.725 164.592 564 170 564L219 564L410 564L1058 564L1213 564C1252.7 564 1291.35 562.501 1326 585.09C1358.49 606.267 1380 641.612 1384.71 680C1388.44 710.306 1385 743.371 1385 774L1386 774L1389 768L1387 744L1387 666L1389 666L1389 767L1390 767L1428.69 695L1503.31 557L1538 492L1539 492L1539 776L1539 858C1539 867.291 1542.1 883.254 1538.4 891.787C1535.02 899.564 1515.26 906.415 1508 910.579C1479.12 927.134 1450.24 943.868 1421 959.769C1408.39 966.629 1385.01 973.97 1385 990L1387 990L1390 979L1388 989L1540 903L1540 1032C1540 1050.26 1535.83 1074.51 1541 1092L1543 1092L1547 1089L1547 902L1620 943.15L1650 959C1649.99 946.66 1640.69 944.135 1631 938.579C1611.75 927.54 1592.5 916.372 1573 905.769C1567.03 902.525 1551.24 896.855 1549.32 889.896C1545.87 877.453 1549 859.931 1549 847C1549 819.056 1548 791.017 1548 763L1548 490L1549 490C1554.34 508.505 1568.39 529.914 1579 546L1580 546L1570 476C1564.83 475.324 1567 462.25 1567 458C1561.33 457.259 1565.03 446.234 1563.67 442.083C1557.82 424.323 1554 404.039 1554 385C1548.59 384.441 1551 371.401 1551 367C1545.89 363.933 1548.59 358.144 1547.86 353.039C1546.53 343.832 1542.11 334.447 1541.11 324.996C1540.54 319.612 1542.48 314.019 1537 311L1535 276L1532 276L1522 212C1517.01 209.002 1514.1 196.011 1511.17 190.424C1503.35 175.499 1491.1 159.395 1476.75 150.246C1472.32 147.423 1469.47 143.427 1464 143L1464 140L1437 130L1437 127L1425 127L1425 124L1370.04 124.058L1347 127z"/>
<path style="fill:#e0dffe; stroke:none;" d="M1365.33 124.667L1365.67 125.333L1365.33 124.667z"/>
<path style="fill:#ad65ff; stroke:none;" d="M1425 126L1426 127L1425 126M1346 129L1347 130L1346 129z"/>
<path style="fill:#37c2d6; stroke:none;" d="M1329 131L1330 132L1329 131z"/>
<path style="fill:#ad65ff; stroke:none;" d="M1452 134L1453 135L1452 134z"/>
<path style="fill:#e0dffe; stroke:none;" d="M1310 135L1311 136L1310 135z"/>
<path style="fill:#37c2d6; stroke:none;" d="M1292 137L1293 138L1292 137z"/>
<path style="fill:#ad65ff; stroke:none;" d="M1292 138L1293 139L1292 138M1273 142L1274 143L1273 142M1469 144L1470 145L1469 144z"/>
<path style="fill:#e0dffe; stroke:none;" d="M1237 147L1238 148L1237 147z"/>
<path style="fill:#37c2d6; stroke:none;" d="M1237 148L1238 149L1237 148z"/>
<path style="fill:#e0dffe; stroke:none;" d="M1219 151L1220 152L1219 151z"/>
<path style="fill:#ad65ff; stroke:none;" d="M1201 153L1202 154L1201 153z"/>
<path style="fill:#37c2d6; stroke:none;" d="M1482 154L1483 155L1482 154z"/>
<path style="fill:#e0dffe; stroke:none;" d="M1164 161L1165 162L1164 161z"/>
<path style="fill:#37c2d6; stroke:none;" d="M1146 164L1147 165L1146 164M1128 166L1129 167L1128 166z"/>
<path style="fill:#e0dffe; stroke:none;" d="M1128 167L1129 168L1128 167z"/>
<path style="fill:#ad65ff; stroke:none;" d="M1127 168L1128 169L1127 168M1110.33 169.667L1110.67 170.333L1110.33 169.667M1498 170L1499 171L1498 170z"/>
<path style="fill:#e0dffe; stroke:none;" d="M1109 171L1110 172L1109 171z"/>
<path style="fill:#37c2d6; stroke:none;" d="M1499 174L1500 175L1499 174z"/>
<path style="fill:#e0dffe; stroke:none;" d="M1501 175L1502 176L1501 175M1073 177L1074 178L1073 177M1055 179L1056 180L1055 179z"/>
<path style="fill:#ad65ff; stroke:none;" d="M1504 179L1505 180L1504 179M1055 180L1056 181L1055 180z"/>
<path style="fill:#e0dffe; stroke:none;" d="M1018 187L1019 188L1018 187z"/>
<path style="fill:#ad65ff; stroke:none;" d="M1510 189L1511 190L1510 189z"/>
<path style="fill:#37c2d6; stroke:none;" d="M1511 189L1512 190L1511 189z"/>
<path style="fill:#e0dffe; stroke:none;" d="M1000 190L1001 191L1000 190z"/>
<path style="fill:#ad65ff; stroke:none;" d="M982 192L983 193L982 192M980 194L981 195L980 194z"/>
<path style="fill:#37c2d6; stroke:none;" d="M964.333 195.667L964.667 196.333L964.333 195.667z"/>
<path style="fill:#ad65ff; stroke:none;" d="M946 198L947 199L946 198z"/>
<path style="fill:#e0dffe; stroke:none;" d="M891 208L892 209L891 208z"/>
<path style="fill:#ad65ff; stroke:none;" d="M891 209L892 210L891 209z"/>
<path style="fill:#e0dffe; stroke:none;" d="M889 210L890 211L889 210z"/>
<path style="fill:#ad65ff; stroke:none;" d="M873 211L874 212L873 211z"/>
<path style="fill:#37c2d6; stroke:none;" d="M873 212L874 213L873 212z"/>
<path style="fill:#e0dffe; stroke:none;" d="M872 213L873 214L872 213z"/>
<path style="fill:#ad65ff; stroke:none;" d="M854 215L855 216L854 215z"/>
<path style="fill:#37c2d6; stroke:none;" d="M836 219L837 220L836 219z"/>
<path style="fill:#ad65ff; stroke:none;" d="M818 222L819 223L818 222z"/>
<path style="fill:#e0dffe; stroke:none;" d="M1522 222L1523 223L1522 222M1523 223L1524 224L1523 223z"/>
<path style="fill:#ad65ff; stroke:none;" d="M1524 223L1525 224L1524 223z"/>
<path style="fill:#37c2d6; stroke:none;" d="M801 225L802 226L801 225M746 235L747 236L746 235z"/>
<path style="fill:#030507; stroke:none;" d="M812 235L812 241L813 241L812 235z"/>
<path style="fill:#ad65ff; stroke:none;" d="M1527 239L1528 240L1527 239z"/>
<path style="fill:#37c2d6; stroke:none;" d="M692 243L693 244L692 243z"/>
<path style="fill:#030507; stroke:none;" d="M815 253L815 260L816 260L815 253z"/>
<path style="fill:#37c2d6; stroke:none;" d="M1530 257L1531 258L1530 257M583 262L584 263L583 262M561 268L562 269L561 268z"/>
<path style="fill:#030507; stroke:none;" d="M818 271L818 277L819 277L818 271z"/>
<path style="fill:#e0dffe; stroke:none;" d="M1532 275L1533 276L1532 275z"/>
<path style="fill:#030507; stroke:none;" d="M821 290L821 296L822 296L821 290z"/>
<path style="fill:#ad65ff; stroke:none;" d="M1537 294L1538 295L1537 294M326 309L327 310L326 309z"/>
<path style="fill:#030507; stroke:none;" d="M824 309L824 314L826 314L826 309L824 309z"/>
<path style="fill:#ad65ff; stroke:none;" d="M1540 312L1541 313L1540 312M289 316L290 317L289 316z"/>
<path style="fill:#030507; stroke:none;" d="M828 326L828 332L829 332L828 326z"/>
<path style="fill:#e0dffe; stroke:none;" d="M1542 330L1543 331L1542 330z"/>
<path style="fill:#030507; stroke:none;" d="M831 344L831 351L832 351L831 344z"/>
<path style="fill:#ad65ff; stroke:none;" d="M1545 348L1546 349L1545 348M182 349L183 350L182 349z"/>
<path style="fill:#030507; stroke:none;" d="M834 362L834 369L835 369L834 362z"/>
<path style="fill:#e0dffe; stroke:none;" d="M1548 366L1549 367L1548 366z"/>
<path style="fill:#37c2d6; stroke:none;" d="M156 376L157 377L156 376z"/>
<path style="fill:#030507; stroke:none;" d="M837 381L837 386L838 386L837 381z"/>
<path style="fill:#37c2d6; stroke:none;" d="M1552 385L1553 386L1552 385z"/>
<path style="fill:#030507; stroke:none;" d="M841 400L841 406L842 406L841 400z"/>
<path style="fill:#ad65ff; stroke:none;" d="M1555.67 403.333L1556.33 403.667L1555.67 403.333z"/>
<path style="fill:#030507; stroke:none;" d="M844 418L844 424L845 424L844 418z"/>
<path style="fill:#e0dffe; stroke:none;" d="M1558 421L1559 422L1558 421z"/>
<path style="fill:#030507; stroke:none;" d="M847 435L847 441L848 441L847 435M850 454L850 460L851 460L850 454z"/>
<path style="fill:#e0dffe; stroke:none;" d="M1564 457L1565 458L1564 457z"/>
<path style="fill:#ad65ff; stroke:none;" d="M1565 458L1566 459L1565 458z"/>
<path style="fill:#030507; stroke:none;" d="M853 473L855 477L853 473z"/>
<path style="fill:#37c2d6; stroke:none;" d="M1568 476L1569 477L1568 476z"/>
<path style="fill:#ad65ff; stroke:none;" d="M1548 490L1548 784C1548 810.057 1549 835.975 1549 862C1549 869.394 1545.86 886.183 1550.03 892.39C1554.51 899.064 1568.09 903.513 1575 907.424C1595.34 918.94 1615.74 930.354 1636 942C1687.23 971.442 1738.39 1001.05 1790 1029.86C1814.21 1043.37 1837.89 1059.28 1863 1071C1859.46 1052.63 1843.21 1032.46 1834.31 1016L1769.31 896C1719.71 804.299 1669.91 712.701 1620.31 621C1604.02 590.88 1587.47 560.939 1570.86 531C1563.55 517.81 1557.63 501.61 1548 490z"/>
<path style="fill:#030507; stroke:none;" d="M857 491L857 497L858 497L857 491z"/>
<path style="fill:#ad65ff; stroke:none;" d="M1538 492L1320.69 894L1263.14 1000L1225 1071L1313 1021.42L1451 943.421L1513 908.281L1537.97 893.366L1539 867L1539 798L1539 582L1539 520L1538 492z"/>
<path style="fill:#3d5ab4; stroke:none;" d="M3138 501.439C3093.15 508.502 3105.25 577.003 3150 569.675C3193.92 562.483 3181.76 494.548 3138 501.439M3369 506L3369 619L3368 619C3362.39 606.986 3346.18 601.194 3334 598.804C3303.45 592.809 3269.71 599.86 3247 622.015C3206.63 661.395 3202.15 734.596 3239.3 778C3269.83 813.667 3338.27 828.079 3370 786L3372 806L3426 806L3425 506L3369 506z"/>
<path style="fill:#030507; stroke:none;" d="M860 508L860 515L861 515L860 508z"/>
<path style="fill:#e0dffe; stroke:none;" d="M1574 512L1575 513L1574 512z"/>
<path style="fill:#3d5ab4; stroke:none;" d="M2006 512L2006 806L2064 806L2064 696C2100.46 696 2140.55 701.305 2173 681.186C2225.09 648.884 2226.14 565.248 2177 529.924C2152.35 512.202 2123.02 512 2094 512L2006 512z"/>
<path style="fill:#ad65ff; stroke:none;" d="M141 516L142 517L141 516z"/>
<path style="fill:#030507; stroke:none;" d="M863 526L863 532L864 532L863 526M866 545L868 551L866 545z"/>
<path style="fill:#e0dffe; stroke:none;" d="M1581 549L1582 550L1581 549z"/>
<path style="fill:#ad65ff; stroke:none;" d="M145 550L146 551L145 550z"/>
<path style="fill:#3d5ab4; stroke:none;" d="M1582.33 550.667L1582.67 551.333L1582.33 550.667z"/>
<path style="fill:#030507; stroke:none;" d="M868 561L1276 561L1276 559L968 559L893 559C887.142 559 871.609 556.225 868 561z"/>
<path style="fill:#37c2d6; stroke:none;" d="M111 561C110.208 564.398 107.299 564.832 104 564.981C94.9108 565.392 86.969 570.854 78 571L78 574L71 574C70.4986 577.837 58.9775 583.303 55 584C54.5757 587.247 48.6512 589.761 46.0278 592C39.7365 597.37 26.6209 607.453 26 616L23 616L23 620L20 620C18.9957 623.989 17.1359 628.648 13 630C13.4344 633.041 13.6126 636.497 10 637C10 641.698 6.40713 653.602 4 653L2 782L1055 782L1305 782L1364 782C1370.41 782 1380.85 784.304 1383.85 776.981C1386.25 771.108 1385 763.221 1385 757L1385 716C1385 696.289 1385.64 677.142 1380.37 658C1377.07 646.03 1371.7 634.745 1365.29 624.171C1320.4 550.2 1229.84 564 1156 564L506 564C374.46 564 241.985 567.217 111 561z"/>
<path style="fill:#e0dffe; stroke:none;" d="M114.667 561.333L115.333 561.667L114.667 561.333z"/>
<path style="fill:#030507; stroke:none;" d="M1278 563L1292 564C1288.1 561.045 1282.53 561.662 1278 563M2065 563L2065 645C2084.81 645 2111.48 649.627 2130 641.662C2158.25 629.517 2162.87 586.626 2136 570.118C2116.45 558.109 2086.93 563 2065 563z"/>
<path style="fill:#e0dffe; stroke:none;" d="M108 564L109 565L108 564z"/>
<path style="fill:#030507; stroke:none;" d="M1293 565L1293 568L1302 567L1293 565M1303 568L1303 571L1309 571L1303 568M1311 572L1311 574L1316 574L1316 572L1311 572z"/>
<path style="fill:#e0dffe; stroke:none;" d="M72 574L73 575L72 574z"/>
<path style="fill:#030507; stroke:none;" d="M1318 575L1318 577L1322 577L1322 575L1318 575z"/>
<path style="fill:#ad65ff; stroke:none;" d="M65 578L66 579L65 578z"/>
<path style="fill:#030507; stroke:none;" d="M1323 578L1324 581L1328 580L1323 578M1328 581L1332 584L1328 581z"/>
<path style="fill:#e0dffe; stroke:none;" d="M55 585L56 586L55 585z"/>
<path style="fill:#030507; stroke:none;" d="M1333 585L1333 587L1337 587L1337 585L1333 585M1338 588L1338 590L1341 590L1341 588L1338 588z"/>
<path style="fill:#ad65ff; stroke:none;" d="M46 591L47 592L46 591z"/>
<path style="fill:#030507; stroke:none;" d="M1341 591L1345 593L1341 591M1345 594L1351 600L1347 594L1345 594z"/>
<path style="fill:#3d5ab4; stroke:none;" d="M2453 719L2598 719C2605.09 680.829 2591.54 634.645 2559 612.039C2502.74 572.952 2424.2 603.909 2402.86 666C2376.1 743.858 2438.51 824.268 2521 811.41C2547.24 807.32 2571.63 793.926 2585.94 771C2589.06 765.999 2597.16 754.56 2595.21 748.278C2594.12 744.76 2587.97 744.172 2585 743.28C2576.34 740.682 2567.68 738.11 2559 735.576C2556.29 734.783 2552.18 732.592 2549.42 734.121C2546.39 735.797 2545 741.233 2543.09 744C2539.05 749.871 2533.32 755.174 2527 758.507C2495.67 775.038 2457.41 753.108 2453 719M2885 664L2936 674C2938.12 649.697 2962.96 637.536 2985 642.9C2996.09 645.599 3011.37 657.841 3005.99 670.996C3000.83 683.629 2977.34 682.743 2966 684.421C2936.84 688.738 2901.12 692.379 2887.03 723C2871.07 757.69 2889.37 797.599 2926 808.562C2957.45 817.972 2989.45 809.665 3011 785C3011 789.694 3009.72 801.717 3013.74 804.972C3016.77 807.424 3024.32 806 3028 806L3065 806C3060.36 769.295 3062 731.98 3062 695C3062 669.596 3063.31 645.385 3047.1 624C3031.89 603.922 3004.21 596.001 2980 596C2935.57 595.997 2891.29 614.522 2885 664M2696 624L2695 624L2695 602L2641 602L2641 885L2697 885L2697 789C2734.27 826.166 2801.09 814.98 2830.84 774C2860.17 733.607 2859.48 665.298 2826.7 627C2803.75 600.189 2764.44 591.141 2731 600.579C2718 604.25 2702.49 611.484 2696 624z"/>
<path style="fill:#030507; stroke:none;" d="M1352 600L1351 603L1357 607L1352 600z"/>
<path style="fill:#3d5ab4; stroke:none;" d="M2307 629L2306 629L2306 602L2252 602L2252 806L2308 806C2308 770.026 2302.71 729.258 2310.21 694C2314.14 675.527 2328.2 660.879 2347 657.464C2357.37 655.581 2366.69 656.696 2377 658L2377 601C2353.62 599.155 2315.77 601.525 2307 629M3116 602L3116 806L3172 806L3172 602L3116 602z"/>
<path style="fill:#37c2d6; stroke:none;" d="M28 605L29 606L28 605z"/>
<path style="fill:#e0dffe; stroke:none;" d="M30 607L31 608L30 607z"/>
<path style="fill:#030507; stroke:none;" d="M1358 607L1358 610L1361 609L1361 608L1358 607z"/>
<path style="fill:#e0dffe; stroke:none;" d="M29 609L30 610L29 609z"/>
<path style="fill:#030507; stroke:none;" d="M1362 610L1363 614L1362 610M1365 615L1364 619L1367 619L1365 615M1367 621L1370 624L1370 620L1367 621z"/>
<path style="fill:#3d5ab4; stroke:none;" d="M1621 623L1622 624L1621 623z"/>
<path style="fill:#030507; stroke:none;" d="M1371 625L1372 630L1373 630L1371 625M1375 630C1373.89 633.059 1373.43 635.235 1377 636L1375 630z"/>
<path style="fill:#e0dffe; stroke:none;" d="M13 631L14 632L13 631M13 633L14 634L13 633z"/>
<path style="fill:#ad65ff; stroke:none;" d="M11 637L12 638L11 637z"/>
<path style="fill:#030507; stroke:none;" d="M1378 637C1377.29 640.058 1377.33 641.268 1380 643L1378 637M2454 680L2543 680C2542.35 648.846 2506.34 633.766 2480 645.515C2464.83 652.281 2457.97 664.685 2454 680M1381 644C1380.6 647.493 1379.88 649.92 1383 652L1381 644z"/>
<path style="fill:#3d5ab4; stroke:none;" d="M1634 647L1635 648L1634 647z"/>
<path style="fill:#030507; stroke:none;" d="M2739 648.439C2676.08 658.343 2685.94 769.867 2751 760.572C2816.63 751.195 2806.83 637.762 2739 648.439M3311 648.464C3247.98 659.806 3263.66 772.208 3330 759.739C3392.68 747.958 3378.29 636.355 3311 648.464z"/>
<path style="fill:#e0dffe; stroke:none;" d="M5 653L6 654L5 653z"/>
<path style="fill:#030507; stroke:none;" d="M1384 653L1384 665L1386 665L1384 653M1387 666L1387 769L1388 769L1389 735L1389 666L1387 666z"/>
<path style="fill:#3d5ab4; stroke:none;" d="M1647 671L1648 672L1647 671M1660 695L1661 696L1660 695z"/>
<path style="fill:#030507; stroke:none;" d="M3007 716C2997.01 716.083 2986.84 718.305 2977 719.92C2969.36 721.173 2961.26 721.602 2954 724.464C2939.29 730.267 2931.26 750.472 2944.19 762.671C2962.38 779.843 2995.78 765.916 3003.56 745C3007.05 735.61 3007 725.857 3007 716z"/>
<path style="fill:#3d5ab4; stroke:none;" d="M1673 719L1674 720L1673 719M1686 743L1687 744L1686 743M1384 775L1385 776L1384 775z"/>
<path style="fill:#e0dffe; stroke:none;" d="M2 782L2 1003L899 1003L1156 1003L1230 1003C1238.51 1003 1252.96 1005.8 1260.79 1002.4C1265.41 1000.39 1268.51 991.253 1270.74 987C1277.6 973.923 1284.7 960.914 1291.86 948C1311.71 912.208 1330.84 875.999 1350.31 840C1360.19 821.724 1375.14 801.922 1381 782L2 782z"/>
<path style="fill:#3d5ab4; stroke:none;" d="M1770 898L1771 899L1770 898z"/>
<path style="fill:#ad65ff; stroke:none;" d="M1547 902L1547 1321C1571.94 1305.41 1594.69 1284.61 1618 1266.65C1668.31 1227.89 1718.3 1188.63 1769 1150.37C1790.16 1134.41 1810.87 1117.87 1832 1101.87C1840.53 1095.41 1855.27 1087.7 1860 1078L1644 956.136L1578 918.719L1547 902M1228 1080C1235.53 1090.23 1249.01 1097.64 1259 1105.42C1282.25 1123.54 1305.74 1141.33 1329 1159.42C1376.67 1196.51 1424.23 1233.69 1472 1270.65C1493.75 1287.48 1516.4 1310.75 1541 1323L1540 903L1504 922.719L1433 963.15L1228 1080z"/>
<path style="fill:#3d5ab4; stroke:none;" d="M1783 922L1784 923L1783 922M1796 946L1797 947L1796 946M1655 953L1656 954L1655 953M1654 961L1655 962L1654 961M1661 965L1662 966L1661 965M1809 970L1810 971L1809 970z"/>
<path style="fill:#030507; stroke:none;" d="M1388 979L1387 989L1390 979L1388 979z"/>
<path style="fill:#e0dffe; stroke:none;" d="M1346 1002L1346 1003C1361.35 1003 1385 1000.34 1385 981L1346 1002z"/>
<path style="fill:#3d5ab4; stroke:none;" d="M1708 983L1709 984L1708 983M1698 986L1699 987L1698 986M1705 990L1706 991L1705 990M1822 994L1823 995L1822 994z"/>
<path style="fill:#37c2d6; stroke:none;" d="M2 1003L2 1278L2.01852 1416L10 1449C13.2868 1449.43 12.9503 1452.04 13 1455L16 1455L29 1478L38.135 1486.71L57 1504C63.4194 1504.93 78.9085 1511.38 82 1517C90.317 1517.1 97.8372 1521.74 106 1522.86C113.934 1523.94 124.493 1520.34 131 1526L173 1525L253 1525L510 1525L1250 1526L1298 1520L1304.78 1516.31L1325 1507L1325 1504L1331 1504L1349 1487.47L1358 1479C1359.47 1473.63 1366.22 1463.6 1371 1461L1374 1456C1373.99 1443.96 1366.94 1435.25 1361.31 1425C1350.44 1405.22 1339.25 1385.57 1328 1366C1301.87 1320.52 1276.42 1274.64 1250.58 1229C1236.49 1204.12 1219.31 1179.25 1208 1153C1248.1 1181.81 1287.44 1211.83 1327 1241.37C1345.95 1255.52 1365.65 1274.85 1387 1285L1387 1228L1385.97 1204.04L1372 1192.12L1341 1168.12L1269 1112.58L1227 1081C1269.65 1052.87 1316.79 1027.82 1362 1004L1362 1003C1339.05 1003 1322.56 1015.36 1303 1026.58C1277.17 1041.38 1249.85 1054.61 1225 1071C1237 1050.44 1254.29 1025.8 1261 1003L2 1003z"/>
<path style="fill:#3d5ab4; stroke:none;" d="M2217 1007L2217 1063L2309 1063L2309 1301L2368 1301L2368 1063L2461 1063L2461 1007L2217 1007M1353 1008L1354 1009L1353 1008M1742 1011L1743 1012L1742 1011M1346 1012L1347 1013L1346 1012M1761 1013L1762 1014L1761 1013M1749 1015L1750 1016L1749 1015M1339 1016L1340 1017L1339 1016M1835 1018L1836 1019L1835 1018M1332 1020L1333 1021L1332 1020M1330 1021L1331 1022L1330 1021M1325 1024L1326 1025L1325 1024M1323 1025L1324 1026L1323 1025M1318 1028L1319 1029L1318 1028M1316 1029L1317 1030L1316 1029M1311 1032L1312 1033L1311 1032M1309 1033L1310 1034L1309 1033M1786 1036L1787 1037L1786 1036M3108 1036C3108 1055.83 3112.45 1087.12 3088 1094.78C3080.96 1096.99 3073.3 1097 3066 1097L3066 1147L3103 1147L3103 1226C3103 1243.95 3102.13 1262.19 3112.24 1278C3126.26 1299.93 3149.99 1304.01 3174 1304C3180.11 1304 3195.09 1304.31 3198.97 1298.57C3201.21 1295.27 3200 1288.8 3200 1285L3200 1252C3188.83 1254.11 3173.35 1257.12 3164.53 1247.67C3157.23 1239.84 3159 1227.8 3159 1218L3159 1147L3200 1147L3200 1097L3159 1097L3159 1036L3108 1036M1302 1037L1303 1038L1302 1037M1793 1040L1794 1041L1793 1040M1295 1041L1296 1042L1295 1041M1814 1043L1815 1044L1814 1043M1288 1045L1289 1046L1288 1045M1281 1049L1282 1050L1281 1049M1274 1053L1275 1054L1274 1053M1267 1057L1268 1058L1267 1057M1260 1061L1261 1062L1260 1061M1830 1061L1831 1062L1830 1061M1258 1062L1259 1063L1258 1062M1253 1065L1254 1066L1253 1065M1837 1065L1838 1066L1837 1065M1251 1066L1252 1067L1251 1066M1246 1069L1247 1070L1246 1069M1244 1070L1245 1071L1244 1070M1239 1073L1240 1074L1239 1073M1237 1074L1238 1075L1237 1074M1232 1077L1233 1078L1232 1077M1230 1078L1231 1079L1230 1078M1860 1079L1861 1080L1860 1079M1227 1080L1228 1081L1227 1080M1228 1081L1229 1082L1228 1081M1233 1085L1234 1086L1233 1085M1237 1088L1238 1089L1237 1088M2930 1233L2881 1243C2887.05 1290.63 2932.85 1310.25 2976 1307.09C3005.49 1304.93 3034.24 1290.09 3043.28 1260C3055.36 1219.76 3028.62 1186.81 2990 1177.65C2975.79 1174.29 2946.04 1174.1 2939.89 1158C2935.25 1145.84 2948.61 1136.34 2959 1134.46C2975.98 1131.4 2994.24 1143.4 2996 1161L3044 1151C3034.46 1075.93 2910.27 1068.48 2889.04 1140C2876.85 1181.03 2906.85 1210.08 2944 1219.37C2958.28 1222.94 2986.28 1223.93 2991.35 1241C2995.49 1254.92 2978.44 1263.72 2967 1263.95C2948.16 1264.32 2932.52 1251.73 2930 1233M1246 1095L1247 1096L1246 1095M2551 1124L2550 1124L2550 1097L2496 1097L2496 1301L2552 1301C2552 1265.03 2546.71 1224.26 2554.21 1189C2558.14 1170.53 2572.2 1155.88 2591 1152.46C2601.37 1150.58 2610.69 1151.7 2621 1153L2621 1096C2597.62 1094.15 2559.77 1096.52 2551 1124M2788 1282L2789 1282L2790 1301L2845 1301C2839.49 1277.84 2842 1250.72 2842 1227L2842 1097L2786 1097L2786 1184C2786 1198.68 2788.42 1215.93 2783.45 1230C2774.99 1253.97 2743.35 1263.12 2724.09 1245.67C2710.9 1233.72 2712 1215.14 2712 1199L2712 1097L2670 1097C2666.52 1097 2658.47 1095.52 2656.03 1098.6C2653.7 1101.54 2655 1108.47 2655 1112L2655 1147C2655 1191.49 2643.59 1255.78 2681 1288.82C2702.14 1307.48 2733.82 1311.05 2760 1302.66C2770.67 1299.24 2783.07 1292.57 2788 1282M1250 1098L1251 1099L1250 1098M1259 1105L1260 1106L1259 1105M1825 1106L1826 1107L1825 1106M1268 1112L1269 1113L1268 1112M1272 1115L1273 1116L1272 1115M1812 1116L1813 1117L1812 1116M1281 1122L1282 1123L1281 1122M1285 1125L1286 1126L1285 1125M1290 1129L1291 1130L1290 1129M1294 1132L1295 1133L1294 1132M1303 1139L1304 1140L1303 1139M1307 1142L1308 1143L1307 1142M1312 1146L1313 1147L1312 1146M1316 1149L1317 1150L1316 1149z"/>
<path style="fill:#ad65ff; stroke:none;" d="M1881 1151C1803.16 1212.77 1721.57 1271.39 1641 1329.58C1618.11 1346.1 1595.59 1363.19 1573 1380.13C1566.19 1385.23 1551.02 1392.36 1547.6 1400.3C1544.23 1408.15 1547 1422.48 1547 1431C1547 1455.7 1546.88 1480.37 1547.96 1505C1551.37 1582.96 1549 1661.99 1549 1740L1550 1740L1795.42 1306L1859.42 1193L1875.77 1164L1881 1151M1207 1152L1208 1153L1207 1152M1208 1153C1213.38 1171.3 1227.84 1189.34 1237.14 1206C1258.41 1244.11 1280.07 1282.02 1301.58 1320C1352.46 1409.87 1402.54 1500.13 1453.42 1590C1481.45 1639.49 1513.94 1688.48 1538 1740L1539 1740C1539.67 1659.4 1541 1578.63 1541 1498L1541 1430C1541 1421.59 1543.62 1407.97 1540.4 1400.17C1537.16 1392.33 1522.65 1385.59 1516 1380.63C1495.01 1364.95 1474.03 1349.25 1453 1333.63C1400.47 1294.6 1347.68 1255.95 1295 1217.12C1266.52 1196.12 1238.73 1170.51 1208 1153z"/>
<path style="fill:#3d5ab4; stroke:none;" d="M1764 1153L1765 1154L1764 1153M1210 1154L1211 1155L1210 1154M1325 1156L1326 1157L1325 1156M1214 1157L1215 1158L1214 1157M1871 1158L1872 1159L1871 1158M1329 1159L1330 1160L1329 1159M1218 1160L1219 1161L1218 1160M1222 1163L1223 1164L1222 1163M1751 1163L1752 1164L1751 1163M1338 1166L1339 1167L1338 1166M1215 1167L1216 1168L1215 1167M1342 1169L1343 1170L1342 1169M1347 1173L1348 1174L1347 1173M1738 1173L1739 1174L1738 1173M1219 1174L1220 1175L1219 1174M1351 1176L1352 1177L1351 1176M1245 1180L1246 1181L1245 1180M1249 1183L1250 1184L1249 1183M1360 1183L1361 1184L1360 1183M1253 1186L1254 1187L1253 1186M1364 1186L1365 1187L1364 1186M1832 1187L1833 1188L1832 1187M1257 1189L1258 1190L1257 1189M1228 1190L1229 1191L1228 1190M1369 1190L1370 1191L1369 1190M1373 1193L1374 1194L1373 1193M1232 1197L1233 1198L1232 1197M1703 1200L1704 1201L1703 1200M1236 1204L1237 1205L1236 1204M1284 1209L1285 1210L1284 1209M1690 1210L1691 1211L1690 1210M1288 1212L1289 1213L1288 1212M1241 1213L1242 1214L1241 1213M1292 1215L1293 1216L1292 1215M1296 1218L1297 1219L1296 1218M1245 1220L1246 1221L1245 1220M1407 1220L1408 1221L1407 1220M1677 1220L1678 1221L1677 1220M1249 1227L1250 1228L1249 1227M1254 1236L1255 1237L1254 1236M1834 1236L1835 1237L1834 1236M1323 1238L1324 1239L1323 1238M1327 1241L1328 1242L1327 1241M1758 1242L1759 1243L1758 1242M1258 1243L1259 1244L1258 1243M1331 1244L1332 1245L1331 1244M1335 1247L1336 1248L1335 1247M1262 1250L1263 1251L1262 1250M1629 1257L1630 1258L1629 1257M1267 1259L1268 1260L1267 1259M1821 1259L1822 1260L1821 1259M1358 1264L1359 1265L1358 1264M1464 1264L1465 1265L1464 1264M1271 1266L1272 1267L1271 1266M1362 1267L1363 1268L1362 1267M1616 1267L1617 1268L1616 1267M1366 1270L1367 1271L1366 1270M1719 1271L1720 1272L1719 1271M1275 1273L1276 1274L1275 1273M1370 1273L1371 1274L1370 1273M1374 1276L1375 1277L1374 1276M1603 1277L1604 1278L1603 1277M1486 1281L1487 1282L1486 1281M1280 1282L1281 1283L1280 1282M1808 1282L1809 1283L1808 1282M1284 1289L1285 1290L1284 1289M1288 1296L1289 1297L1288 1296M1406 1299L1407 1300L1406 1299M1680 1300L1681 1301L1680 1300M1568 1304L1569 1305L1568 1304M1293 1305L1294 1306L1293 1305M1297 1312L1298 1313L1297 1312M1555 1314L1556 1315L1555 1314M1301 1319L1302 1320L1301 1319M1445 1328L1446 1329L1445 1328M1641 1329L1642 1330L1641 1329M1310 1335L1311 1336L1310 1335M1314 1342L1315 1343L1314 1342z"/>
<path style="fill:#e0dffe; stroke:none;" d="M351.044 1348.76C342.392 1352 347.268 1365.35 355.895 1361.95C364.24 1358.67 359.546 1345.58 351.044 1348.76M398 1370C393.764 1368.44 389.576 1367.03 385 1367.66C352.264 1372.15 371.022 1426.67 399 1407C400.013 1411.73 407.005 1410 411 1410L410 1349C395.122 1349 398 1357.41 398 1370M497 1390L485 1387C478.589 1403.34 455.52 1401.87 452.329 1384C448.471 1362.39 474.864 1354.01 485 1373L497 1369C483.215 1333.53 433.254 1350.64 439.326 1387C444.124 1415.74 492.278 1421.39 497 1390M609 1370C604.764 1368.44 600.576 1367.03 596 1367.66C563.264 1372.15 582.022 1426.67 610 1407C611.013 1411.73 618.005 1410 622 1410L621 1349C606.122 1349 609 1357.41 609 1370M126 1410L139 1410L139 1388C144.204 1388 149.95 1388.67 155 1387.21C168.022 1383.45 173.067 1366.29 163.66 1356.19C157.905 1350.01 148.814 1350 141 1350C137.524 1350 129.468 1348.52 127.028 1351.6C124.456 1354.85 126 1363.07 126 1367L126 1410z"/>
<path style="fill:#3d5ab4; stroke:none;" d="M1323 1358L1324 1359L1323 1358M1602 1358L1603 1359L1602 1358z"/>
<path style="fill:#37c2d6; stroke:none;" d="M139 1361L139 1377C142.993 1377 148.28 1377.85 151.891 1375.82C166.083 1367.83 145.541 1361 139 1361z"/>
<path style="fill:#3d5ab4; stroke:none;" d="M1327 1365L1328 1366L1327 1365z"/>
<path style="fill:#e0dffe; stroke:none;" d="M245 1397C232.968 1395.23 224.568 1405.24 216 1393L231 1393C234.446 1393 241.418 1394.31 244.254 1391.97C248.713 1388.29 243.318 1376.43 240.468 1373.19C232.368 1363.98 215.849 1365.44 208.8 1375.04C206.424 1378.28 205.279 1382.09 204.62 1386C203.824 1390.72 204.674 1395.72 206.839 1400C214.554 1415.26 241.428 1415.46 245 1397M264 1372C262.669 1367.99 254.942 1365.57 252.603 1370.32C247.961 1379.75 252 1400.45 252 1411C252 1414.53 250.699 1421.46 253.028 1424.4C255.147 1427.07 260.997 1426 264 1426L264 1408C268.395 1409.79 272.166 1411.17 277 1410.96C308.905 1409.56 294.353 1350.66 264 1372M302 1382L312 1384C313.748 1381.32 315.542 1378.13 319.012 1377.54C321.489 1377.12 326.355 1379.32 324.168 1382.45C319.491 1389.16 307.034 1383.61 302.318 1393.02C294.201 1409.21 316.78 1414.18 327 1407C327.982 1411.58 334.116 1410 338 1410C338 1399.59 341.463 1381.64 334.581 1373.04C325.215 1361.35 303.362 1366.99 302 1382M503 1382L513 1384C514.748 1381.32 516.542 1378.13 520.012 1377.54C522.49 1377.12 527.355 1379.32 525.168 1382.45C520.491 1389.16 508.034 1383.61 503.318 1393.02C495.201 1409.21 517.78 1414.18 528 1407C528.982 1411.58 535.116 1410 539 1410C539 1399.59 542.463 1381.64 535.581 1373.04C526.215 1361.35 504.362 1366.99 503 1382M174 1410L186 1410C186 1397.73 183.362 1380.39 200 1380L200 1368L186 1372C184.534 1367.58 175.95 1365.65 174.318 1371.15C171.029 1382.23 174 1398.42 174 1410M347 1410L359 1410L359 1368L348.603 1369.03L347 1380L347 1410M549 1410L561 1410C561 1397.73 558.362 1380.39 575 1380L575 1368L561 1372C559.534 1367.58 550.95 1365.65 549.318 1371.15C546.029 1382.23 549 1398.42 549 1410z"/>
<path style="fill:#37c2d6; stroke:none;" d="M217 1384L233 1384C230.451 1375.19 219.942 1375.8 217 1384M388.004 1378.72C376.19 1380.11 377.83 1400.93 389.996 1399.85C402.063 1398.77 400.629 1377.23 388.004 1378.72M599.004 1378.72C587.19 1380.11 588.83 1400.93 600.996 1399.85C613.063 1398.77 611.629 1377.23 599.004 1378.72M270.044 1379.74C258.73 1384.32 265.872 1404.52 277.895 1399.14C288.364 1394.46 282.359 1374.75 270.044 1379.74z"/>
<path style="fill:#3d5ab4; stroke:none;" d="M1336 1381L1337 1382L1336 1381M1519 1383L1520 1384L1519 1383M1563 1387L1564 1388L1563 1387M1340 1388L1341 1389L1340 1388z"/>
<path style="fill:#37c2d6; stroke:none;" d="M326 1392C323.992 1392.26 321.98 1392.52 319.996 1392.94C305.286 1396.06 325.025 1409.79 326 1392M527 1392C524.991 1392.26 522.98 1392.52 520.996 1392.94C506.286 1396.06 526.025 1409.79 527 1392z"/>
<path style="fill:#3d5ab4; stroke:none;" d="M1349 1404L1350 1405L1349 1404M1739 1404L1740 1405L1739 1404M1353 1411L1354 1412L1353 1411M1357 1418L1358 1419L1357 1418z"/>
<path style="fill:#ad65ff; stroke:none;" d="M3 1422L4 1423L3 1422z"/>
<path style="fill:#3d5ab4; stroke:none;" d="M1362 1427L1363 1428L1362 1427M1726 1427L1727 1428L1726 1427M1366 1434L1367 1435L1366 1434M1370 1441L1371 1442L1370 1441M1713 1450L1714 1451L1713 1450z"/>
<path style="fill:#e0dffe; stroke:none;" d="M1372 1455L1373 1456L1372 1455M20 1465L21 1466L20 1465M1366 1466L1367 1467L1366 1466M24 1470L25 1471L24 1470M26 1472L27 1473L26 1472z"/>
<path style="fill:#37c2d6; stroke:none;" d="M1365 1472L1366 1473L1365 1472z"/>
<path style="fill:#ad65ff; stroke:none;" d="M1360 1474L1361 1475L1360 1474M32 1479L33 1480L32 1479z"/>
<path style="fill:#e0dffe; stroke:none;" d="M1355 1479L1356 1480L1355 1479M1353 1482L1354 1483L1353 1482M35 1483L36 1484L35 1483M1347 1488L1348 1489L1347 1488M1345 1490L1346 1491L1345 1490M1343 1491L1344 1492L1343 1491M1342 1492L1343 1493L1342 1492M45 1493L46 1494L45 1493M48 1494L49 1495L48 1494M1339 1494L1340 1495L1339 1494M1338.33 1495.67L1338.67 1496.33L1338.33 1495.67M1334 1499L1335 1500L1334 1499z"/>
<path style="fill:#37c2d6; stroke:none;" d="M1336 1501L1337 1502L1336 1501z"/>
<path style="fill:#3d5ab4; stroke:none;" d="M1547 1501L1548 1502L1547 1501z"/>
<path style="fill:#ad65ff; stroke:none;" d="M57 1502L58 1503L57 1502z"/>
<path style="fill:#e0dffe; stroke:none;" d="M1330 1502L1331 1503L1330 1502M67 1507L68 1508L67 1507M1319.33 1508.67L1319.67 1509.33L1319.33 1508.67M68 1509L69 1510L68 1509M73 1510L74 1511L73 1510M1314 1510L1315 1511L1314 1510M80 1513L81 1514L80 1513M1308 1513L1309 1514L1308 1513z"/>
<path style="fill:#3d5ab4; stroke:none;" d="M1410 1513L1411 1514L1410 1513M1305 1516L1306 1517L1305 1516M102 1522L103 1523L102 1522z"/>
<path style="fill:#e0dffe; stroke:none;" d="M1285 1522L1286 1523L1285 1522M127 1523L128 1524L127 1523M1261 1523L1262 1524L1261 1523M1257 1526L1260 1524L1257 1526M132 1525L132 1526L689 1526C676.593 1520.79 654.515 1525 641 1525L527 1525L132 1525z"/>
<path style="fill:#ad65ff; stroke:none;" d="M689 1525L690 1526L689 1525z"/>
<path style="fill:#3d5ab4; stroke:none;" d="M1423 1536L1424 1537L1423 1536M1657 1549L1658 1550L1657 1549M1436 1559L1437 1560L1436 1559M1540.33 1561.67L1540.67 1562.33L1540.33 1561.67M1644 1572L1645 1573L1644 1572M1631 1595L1632 1596L1631 1595M1618 1618L1619 1619L1618 1618M1492 1658L1493 1659L1492 1658M1548 1670L1549 1671L1548 1670M1505 1681L1506 1682L1505 1681M1518 1704L1519 1705L1518 1704M1562 1717L1563 1718L1562 1717M1531 1727L1532 1728L1531 1727z"/>
</svg>
